<svg width="25" height="24" viewBox="0 0 25 24" fill="none" xmlns="http://www.w3.org/2000/svg">
<g id="dashicons:businessperson">
<path id="Vector" d="M17.6857 11.9999L13.9142 16.4999L12.2 14.3999L10.4857 16.4999L6.71424 11.9999C0.199952 13.4999 0.199951 16.4999 0.199951 22.3499C0.199951 22.3499 5.34281 23.9999 11.1714 23.9999H13.2285C19.0571 23.8499 24.2 22.3499 24.2 22.3499C24.2 16.4999 24.2 13.4999 17.6857 11.9999ZM12.2 13.0499L9.45709 11.9999L12.2 14.3999L14.9428 11.9999L12.2 13.0499ZM12.2 0.149902C8.94281 0.149902 7.05709 2.8499 7.57138 5.8499C8.08567 8.8499 9.79995 10.9499 12.2 10.9499C14.6 10.9499 16.3142 8.8499 16.8285 5.8499C17.3428 2.6999 15.4571 0.149902 12.2 0.149902Z" fill="url(#paint0_linear_29_261)"/>
</g>
<defs>
<linearGradient id="paint0_linear_29_261" x1="12" y1="7" x2="57" y2="33" gradientUnits="userSpaceOnUse">
<stop stop-color="#970011"/>
<stop offset="1" stop-color="#FFCD00"/>
</linearGradient>
</defs>
</svg>
