<svg width="24" height="24" viewBox="0 0 24 24" fill="none" xmlns="http://www.w3.org/2000/svg">
<g id="Group">
<path id="Vector" d="M13.299 3.14795L21.933 18.1019C22.0646 18.33 22.134 18.5886 22.134 18.8519C22.134 19.1152 22.0646 19.3739 21.933 19.6019C21.8014 19.83 21.612 20.0193 21.384 20.151C21.156 20.2826 20.8973 20.3519 20.634 20.3519H3.36599C3.10269 20.3519 2.84403 20.2826 2.616 20.151C2.38798 20.0193 2.19863 19.83 2.06698 19.6019C1.93533 19.3739 1.86603 19.1152 1.86603 18.8519C1.86603 18.5886 1.93534 18.33 2.06699 18.1019L10.701 3.14795C11.278 2.14795 12.721 2.14795 13.299 3.14795ZM12 14.9999C11.7348 14.9999 11.4804 15.1053 11.2929 15.2928C11.1053 15.4804 11 15.7347 11 15.9999C11 16.2652 11.1053 16.5195 11.2929 16.7071C11.4804 16.8946 11.7348 16.9999 12 16.9999C12.2652 16.9999 12.5196 16.8946 12.7071 16.7071C12.8946 16.5195 13 16.2652 13 15.9999C13 15.7347 12.8946 15.4804 12.7071 15.2928C12.5196 15.1053 12.2652 14.9999 12 14.9999ZM12 7.99995C11.7551 7.99998 11.5187 8.08991 11.3356 8.25266C11.1526 8.41542 11.0356 8.6397 11.007 8.88295L11 8.99995V12.9999C11.0003 13.2548 11.0979 13.5 11.2728 13.6853C11.4478 13.8707 11.6869 13.9822 11.9414 13.9971C12.1958 14.0121 12.4464 13.9293 12.6418 13.7657C12.8373 13.6021 12.9629 13.37 12.993 13.1169L13 12.9999V8.99995C13 8.73473 12.8946 8.48038 12.7071 8.29284C12.5196 8.10531 12.2652 7.99995 12 7.99995Z" fill="#C9676D"/>
</g>
</svg>
