<svg width="29" height="31" viewBox="0 0 29 31" fill="none" xmlns="http://www.w3.org/2000/svg">
<g id="Group">
<path id="Vector" d="M14.6001 21.7519V23.9162M14.6001 11.0162V13.0305M14.6001 29.1876C22.1001 29.1876 27.4572 26.5305 27.4572 20.6162C27.4572 14.1876 24.2429 9.90188 17.8143 6.6876L20.3429 3.43045C20.4714 3.21675 20.5411 2.97288 20.5449 2.72357C20.5487 2.47425 20.4866 2.22836 20.3647 2.01081C20.2429 1.79325 20.0657 1.61178 19.8512 1.48477C19.6366 1.35776 19.3923 1.28974 19.1429 1.2876H10.0572C9.80787 1.28974 9.56354 1.35776 9.34897 1.48477C9.13439 1.61178 8.95721 1.79325 8.83538 2.01081C8.71355 2.22836 8.65141 2.47425 8.65524 2.72357C8.65907 2.97288 8.72875 3.21675 8.85721 3.43045L11.3858 6.70903C4.95721 9.94474 1.74292 14.2305 1.74292 20.659C1.74292 26.5305 7.10006 29.1876 14.6001 29.1876Z" stroke="#FFC700" stroke-width="2.14286" stroke-linecap="round" stroke-linejoin="round"/>
<path id="Vector_2" d="M12.4572 20.7662C12.7187 21.0766 13.0477 21.3229 13.4192 21.4863C13.7906 21.6498 14.1946 21.726 14.6 21.7091C15.2198 21.7513 15.8317 21.5516 16.3073 21.152C16.7828 20.7524 17.0849 20.1839 17.15 19.5662C17.0849 18.9485 16.7828 18.38 16.3073 17.9804C15.8317 17.5808 15.2198 17.3811 14.6 17.4233C13.9803 17.4656 13.3684 17.2659 12.8928 16.8663C12.4173 16.4667 12.1152 15.8982 12.05 15.2805C12.1099 14.6606 12.4106 14.0889 12.8874 13.6882C13.3642 13.2875 13.9791 13.0899 14.6 13.1376C14.9984 13.1133 15.3971 13.1775 15.7677 13.3257C16.1382 13.4739 16.4713 13.7024 16.7429 13.9948" stroke="#FFC700" stroke-width="2.14286" stroke-linecap="round" stroke-linejoin="round"/>
</g>
</svg>
