<svg width="41" height="41" viewBox="0 0 41 41" fill="none" xmlns="http://www.w3.org/2000/svg">
<g id="Group">
<path id="Vector" d="M30.6768 0.131226H9.42682C4.24915 0.131226 0.0518188 4.32856 0.0518188 9.50623V30.7562C0.0518188 35.9339 4.24915 40.1312 9.42682 40.1312H30.6768C35.8545 40.1312 40.0518 35.9339 40.0518 30.7562V9.50623C40.0518 4.32856 35.8545 0.131226 30.6768 0.131226Z" fill="url(#paint0_radial_59_76)"/>
<path id="Vector_2" d="M30.6768 0.131226H9.42682C4.24915 0.131226 0.0518188 4.32856 0.0518188 9.50623V30.7562C0.0518188 35.9339 4.24915 40.1312 9.42682 40.1312H30.6768C35.8545 40.1312 40.0518 35.9339 40.0518 30.7562V9.50623C40.0518 4.32856 35.8545 0.131226 30.6768 0.131226Z" fill="url(#paint1_radial_59_76)"/>
<path id="Vector_3" d="M20.0532 4.50623C15.8098 4.50623 15.2771 4.52482 13.6106 4.6006C11.9471 4.67685 10.8117 4.94013 9.81823 5.32654C8.79041 5.7256 7.91869 6.25951 7.05026 7.12826C6.18104 7.99685 5.64713 8.86857 5.24682 9.89591C4.85932 10.8897 4.59572 12.0256 4.52088 13.6883C4.44635 15.355 4.42682 15.8878 4.42682 20.1314C4.42682 24.375 4.44557 24.9059 4.52119 26.5725C4.59776 28.2359 4.86104 29.3714 5.24713 30.3648C5.64651 31.3926 6.18041 32.2644 7.04916 33.1328C7.91744 34.002 8.78916 34.5372 9.81619 34.9362C10.8104 35.3226 11.946 35.5859 13.6092 35.6622C15.2759 35.7379 15.8081 35.7565 20.0514 35.7565C24.2953 35.7565 24.8262 35.7379 26.4928 35.6622C28.1562 35.5859 29.2929 35.3226 30.2871 34.9362C31.3145 34.5372 32.1849 34.002 33.0531 33.1328C33.9223 32.2644 34.456 31.3926 34.8565 30.3653C35.2406 29.3714 35.5043 28.2356 35.5824 26.5728C35.6573 24.9062 35.6768 24.375 35.6768 20.1314C35.6768 15.8878 35.6573 15.3553 35.5824 13.6886C35.5043 12.0251 35.2406 10.8898 34.8565 9.89638C34.456 8.86857 33.9223 7.99685 33.0531 7.12826C32.184 6.25919 31.3148 5.72529 30.2862 5.32669C29.2901 4.94013 28.154 4.67669 26.4906 4.6006C24.8238 4.52482 24.2932 4.50623 20.0484 4.50623H20.0532ZM18.6515 7.32201C19.0676 7.32138 19.5318 7.32201 20.0532 7.32201C24.2253 7.32201 24.7196 7.33701 26.3671 7.41185C27.8906 7.48154 28.7174 7.73607 29.2682 7.94998C29.9974 8.2331 30.5173 8.57169 31.0639 9.11873C31.6107 9.6656 31.9492 10.1864 32.2331 10.9156C32.447 11.4656 32.7018 12.2925 32.7712 13.8159C32.846 15.4631 32.8623 15.9578 32.8623 20.1278C32.8623 24.2978 32.846 24.7926 32.7712 26.4397C32.7015 27.9631 32.447 28.79 32.2331 29.3401C31.9499 30.0693 31.6107 30.5886 31.0639 31.1351C30.517 31.682 29.9978 32.0204 29.2682 32.3037C28.7181 32.5186 27.8906 32.7725 26.3671 32.8422C24.7199 32.917 24.2253 32.9333 20.0532 32.9333C15.881 32.9333 15.3865 32.917 13.7395 32.8422C12.216 32.7719 11.3892 32.5173 10.8379 32.3034C10.1089 32.0201 9.58791 31.6817 9.04104 31.1348C8.49416 30.5879 8.15573 30.0684 7.87182 29.3389C7.65791 28.7887 7.40307 27.9618 7.33369 26.4384C7.25885 24.7912 7.24385 24.2965 7.24385 20.1239C7.24385 15.9514 7.25885 15.4592 7.33369 13.812C7.40338 12.2886 7.65791 11.4617 7.87182 10.9109C8.1551 10.1817 8.49416 9.66091 9.04119 9.11404C9.58807 8.56716 10.1088 8.22857 10.8381 7.94482C11.3888 7.72998 12.216 7.47607 13.7395 7.40607C15.1809 7.34091 15.7395 7.32138 18.6515 7.3181V7.32201ZM28.3939 9.91638C27.3587 9.91638 26.5189 10.7554 26.5189 11.7908C26.5189 12.8259 27.3587 13.6658 28.3939 13.6658C29.429 13.6658 30.2689 12.8259 30.2689 11.7908C30.2689 10.7556 29.429 9.91576 28.3939 9.91576V9.91638ZM20.0532 12.1072C15.622 12.1072 12.0292 15.7 12.0292 20.1314C12.0292 24.5628 15.622 28.1539 20.0532 28.1539C24.4846 28.1539 28.0762 24.5628 28.0762 20.1314C28.0762 15.7001 24.4843 12.1072 20.0529 12.1072H20.0532ZM20.0532 14.9229C22.9296 14.9229 25.2617 17.2547 25.2617 20.1314C25.2617 23.0078 22.9296 25.3398 20.0532 25.3398C17.1767 25.3398 14.8449 23.0078 14.8449 20.1314C14.8449 17.2547 17.1767 14.9229 20.0532 14.9229Z" fill="white"/>
</g>
<defs>
<radialGradient id="paint0_radial_59_76" cx="0" cy="0" r="1" gradientUnits="userSpaceOnUse" gradientTransform="translate(10.6768 43.212) rotate(-90) scale(39.643 36.8711)">
<stop stop-color="#FFDD55"/>
<stop offset="0.1" stop-color="#FFDD55"/>
<stop offset="0.5" stop-color="#FF543E"/>
<stop offset="1" stop-color="#C837AB"/>
</radialGradient>
<radialGradient id="paint1_radial_59_76" cx="0" cy="0" r="1" gradientUnits="userSpaceOnUse" gradientTransform="translate(-6.64834 3.01263) rotate(78.681) scale(17.7206 73.045)">
<stop stop-color="#3771C8"/>
<stop offset="0.128" stop-color="#3771C8"/>
<stop offset="1" stop-color="#6600FF" stop-opacity="0"/>
</radialGradient>
</defs>
</svg>
