<svg width="30" height="30" viewBox="0 0 30 30" fill="none" xmlns="http://www.w3.org/2000/svg">
<g id="ph:lock-key-thin">
<path id="Vector" d="M24.375 9.84375H20.1562V6.5625C20.1562 5.19498 19.613 3.88347 18.646 2.91648C17.679 1.9495 16.3675 1.40625 15 1.40625C13.6325 1.40625 12.321 1.9495 11.354 2.91648C10.387 3.88347 9.84375 5.19498 9.84375 6.5625V9.84375H5.625C5.25204 9.84375 4.89435 9.99191 4.63063 10.2556C4.36691 10.5194 4.21875 10.877 4.21875 11.25V24.375C4.21875 24.748 4.36691 25.1056 4.63063 25.3694C4.89435 25.6331 5.25204 25.7812 5.625 25.7812H24.375C24.748 25.7812 25.1056 25.6331 25.3694 25.3694C25.6331 25.1056 25.7812 24.748 25.7812 24.375V11.25C25.7812 10.877 25.6331 10.5194 25.3694 10.2556C25.1056 9.99191 24.748 9.84375 24.375 9.84375ZM10.7812 6.5625C10.7812 5.44362 11.2257 4.37056 12.0169 3.57939C12.8081 2.78822 13.8811 2.34375 15 2.34375C16.1189 2.34375 17.1919 2.78822 17.9831 3.57939C18.7743 4.37056 19.2188 5.44362 19.2188 6.5625V9.84375H10.7812V6.5625ZM24.8438 24.375C24.8438 24.4993 24.7944 24.6185 24.7065 24.7065C24.6185 24.7944 24.4993 24.8438 24.375 24.8438H5.625C5.50068 24.8438 5.38145 24.7944 5.29354 24.7065C5.20564 24.6185 5.15625 24.4993 5.15625 24.375V11.25C5.15625 11.1257 5.20564 11.0065 5.29354 10.9185C5.38145 10.8306 5.50068 10.7812 5.625 10.7812H24.375C24.4993 10.7812 24.6185 10.8306 24.7065 10.9185C24.7944 11.0065 24.8438 11.1257 24.8438 11.25V24.375ZM15 13.5938C14.2953 13.5945 13.6166 13.8598 13.0981 14.337C12.5797 14.8143 12.2593 15.4688 12.2003 16.171C12.1414 16.8732 12.3482 17.572 12.7799 18.129C13.2115 18.686 13.8365 19.0607 14.5312 19.1789V21.5625C14.5312 21.6868 14.5806 21.806 14.6685 21.894C14.7565 21.9819 14.8757 22.0312 15 22.0312C15.1243 22.0312 15.2435 21.9819 15.3315 21.894C15.4194 21.806 15.4688 21.6868 15.4688 21.5625V19.1789C16.1635 19.0607 16.7885 18.686 17.2201 18.129C17.6518 17.572 17.8586 16.8732 17.7997 16.171C17.7407 15.4688 17.4203 14.8143 16.9019 14.337C16.3834 13.8598 15.7047 13.5945 15 13.5938ZM15 18.2812C14.6292 18.2812 14.2666 18.1713 13.9583 17.9653C13.65 17.7592 13.4096 17.4664 13.2677 17.1238C13.1258 16.7812 13.0887 16.4042 13.161 16.0405C13.2334 15.6767 13.412 15.3426 13.6742 15.0804C13.9364 14.8182 14.2705 14.6396 14.6342 14.5673C14.9979 14.4949 15.3749 14.5321 15.7175 14.674C16.0601 14.8159 16.353 15.0562 16.559 15.3646C16.765 15.6729 16.875 16.0354 16.875 16.4062C16.875 16.9035 16.6775 17.3804 16.3258 17.7321C15.9742 18.0837 15.4973 18.2812 15 18.2812Z" fill="#F4F4F4"/>
</g>
</svg>
