<svg width="41" height="41" viewBox="0 0 41 41" fill="none" xmlns="http://www.w3.org/2000/svg">
<g id="logos:facebook">
<path id="Vector" d="M40.0518 20.1312C40.0518 9.0856 31.0974 0.131226 20.0518 0.131226C9.00619 0.131226 0.0518188 9.08545 0.0518188 20.1312C0.0518188 30.1137 7.36557 38.388 16.9268 39.8883V25.9125H11.8487V20.1312H16.9268V15.725C16.9268 10.7125 19.9128 7.94373 24.481 7.94373C26.6693 7.94373 28.9581 8.33435 28.9581 8.33435V13.2562H26.4362C23.9515 13.2562 23.1768 14.7979 23.1768 16.3797V20.1312H28.7237L27.837 25.9125H23.1768V39.8883C32.7381 38.388 40.0518 30.1139 40.0518 20.1312Z" fill="#1877F2"/>
<path id="Vector_2" d="M27.837 25.9125L28.7237 20.1312H23.1768V16.3797C23.1768 14.7978 23.9517 13.2562 26.4362 13.2562H28.9581V8.33435C28.9581 8.33435 26.6693 7.94373 24.481 7.94373C19.9128 7.94373 16.9268 10.7125 16.9268 15.725V20.1312H11.8487V25.9125H16.9268V39.8883C17.9606 40.0503 19.0054 40.1315 20.0518 40.1312C21.0982 40.1315 22.143 40.0503 23.1768 39.8883V25.9125H27.837Z" fill="white"/>
</g>
</svg>
