<svg width="41" height="41" viewBox="0 0 41 41" fill="none" xmlns="http://www.w3.org/2000/svg">
<g id="logos:google-icon">
<path id="Vector" d="M40.0328 20.5054C40.0328 18.8666 39.8967 17.6708 39.6021 16.4306H20.4503V23.8272H31.692C31.4654 25.6654 30.2415 28.4337 27.5217 30.2938L27.4835 30.5414L33.539 35.1251L33.9585 35.166C37.8115 31.6891 40.0328 26.5734 40.0328 20.5054Z" fill="#4285F4"/>
<path id="Vector_2" d="M20.4503 39.9938C25.9578 39.9938 30.5814 38.2221 33.9585 35.166L27.5217 30.2938C25.7992 31.4676 23.4873 32.287 20.4503 32.287C15.056 32.287 10.4778 28.8102 8.84573 24.0045L8.60651 24.0244L2.30994 28.7857L2.2276 29.0094C5.58198 35.5202 12.4721 39.9938 20.4503 39.9938Z" fill="#34A853"/>
<path id="Vector_3" d="M8.84573 24.0045C8.4151 22.7644 8.16588 21.4355 8.16588 20.0625C8.16588 18.6894 8.4151 17.3607 8.82307 16.1205L8.81166 15.8564L2.43619 11.0186L2.2276 11.1155C0.8451 13.8173 0.0518188 16.8514 0.0518188 20.0625C0.0518188 23.2737 0.8451 26.3076 2.2276 29.0094L8.84573 24.0045Z" fill="#FBBC05"/>
<path id="Vector_4" d="M20.4503 7.83794C24.2806 7.83794 26.8643 9.45458 28.3376 10.8056L34.0945 5.31336C30.5588 2.10222 25.9578 0.131226 20.4503 0.131226C12.4721 0.131226 5.58198 4.60466 2.2276 11.1155L8.82307 16.1205C10.4778 11.3149 15.056 7.83794 20.4503 7.83794Z" fill="#EB4335"/>
</g>
</svg>
