<svg width="39" height="31" viewBox="0 0 39 31" fill="none" xmlns="http://www.w3.org/2000/svg">
<g id="logos:mastercard">
<path id="Vector" d="M7.01957 30.1314V28.1458C7.01957 27.3845 6.55615 26.8882 5.76183 26.8882C5.36475 26.8882 4.9345 27.0205 4.63661 27.4508C4.40505 27.0867 4.07415 26.8882 3.57771 26.8882C3.24666 26.8882 2.9159 26.9874 2.65103 27.3515V26.9544H1.95605V30.1314H2.65103V28.3773C2.65103 27.8149 2.94892 27.55 3.41234 27.55C3.87545 27.55 4.10731 27.8479 4.10731 28.3773V30.1314H4.80229V28.3773C4.80229 27.8149 5.13304 27.55 5.56329 27.55C6.02671 27.55 6.25827 27.8479 6.25827 28.3773V30.1314H7.01957ZM17.3117 26.9544H16.1866V25.9947H15.4916V26.9544H14.8628V27.583H15.4915V29.0393C15.4915 29.7674 15.7894 30.1975 16.5837 30.1975C16.8816 30.1975 17.2123 30.0983 17.4442 29.966L17.2455 29.3702C17.047 29.5026 16.8154 29.5357 16.6499 29.5357C16.319 29.5357 16.1866 29.3372 16.1866 29.0061V27.583H17.3117V26.9544ZM23.2025 26.888C22.8055 26.888 22.5407 27.0867 22.3752 27.3515V26.9544H21.6802V30.1314H22.3752V28.3443C22.3752 27.8149 22.6068 27.517 23.037 27.517C23.1694 27.517 23.3349 27.5501 23.4673 27.5832L23.6658 26.9214C23.5334 26.8882 23.3349 26.8882 23.2025 26.8882V26.888ZM14.3002 27.2191C13.9692 26.9874 13.5059 26.8882 13.0095 26.8882C12.2153 26.8882 11.6859 27.2853 11.6859 27.9141C11.6859 28.4437 12.0829 28.7414 12.7779 28.8407L13.1088 28.8739C13.4729 28.9399 13.6714 29.0393 13.6714 29.2048C13.6714 29.4364 13.4067 29.6019 12.9433 29.6019C12.48 29.6019 12.116 29.4364 11.8842 29.271L11.5533 29.8004C11.9174 30.0652 12.4138 30.1975 12.9101 30.1975C13.8368 30.1975 14.3664 29.7674 14.3664 29.1717C14.3664 28.609 13.9362 28.3112 13.2742 28.212L12.9433 28.1788C12.6454 28.1456 12.4138 28.0796 12.4138 27.881C12.4138 27.6493 12.6454 27.517 13.0095 27.517C13.4067 27.517 13.8038 27.6824 14.0023 27.7817L14.3002 27.2191ZM32.7668 26.8882C32.3696 26.8882 32.1048 27.0867 31.9393 27.3515V26.9544H31.2443V30.1314H31.9393V28.3443C31.9393 27.8149 32.171 27.517 32.6011 27.517C32.7336 27.517 32.8992 27.5501 33.0315 27.5832L33.2301 26.9214C33.0977 26.8882 32.8992 26.8882 32.7668 26.8882ZM23.8975 28.5429C23.8975 29.5026 24.5593 30.1975 25.5854 30.1975C26.0486 30.1975 26.3795 30.0983 26.7104 29.8336L26.3795 29.271C26.1148 29.4695 25.8501 29.5687 25.5522 29.5687C24.9896 29.5687 24.5925 29.1717 24.5925 28.5429C24.5925 27.9472 24.9896 27.55 25.5522 27.517C25.8501 27.517 26.1148 27.6162 26.3795 27.8149L26.7104 27.2523C26.3795 26.9874 26.0486 26.8882 25.5854 26.8882C24.5593 26.8882 23.8975 27.5832 23.8975 28.5429ZM30.3178 28.5429V26.9544H29.6228V27.3515C29.3911 27.0537 29.0602 26.8882 28.63 26.8882C27.7365 26.8882 27.0415 27.5832 27.0415 28.5429C27.0415 29.5026 27.7365 30.1975 28.63 30.1975C29.0932 30.1975 29.4243 30.0322 29.6228 29.7343V30.1314H30.3178V28.5429ZM27.7695 28.5429C27.7695 27.9802 28.1335 27.517 28.7292 27.517C29.2918 27.517 29.689 27.9472 29.689 28.5429C29.689 29.1055 29.2918 29.5687 28.7292 29.5687C28.1335 29.5356 27.7695 29.1055 27.7695 28.5429ZM19.4629 26.8882C18.5363 26.8882 17.8743 27.55 17.8743 28.5429C17.8743 29.5357 18.5361 30.1975 19.496 30.1975C19.9592 30.1975 20.4226 30.0652 20.7867 29.7674L20.4557 29.271C20.1909 29.4695 19.86 29.6019 19.5291 29.6019C19.0989 29.6019 18.6686 29.4034 18.5693 28.8406H20.9191V28.576C20.9522 27.55 20.3566 26.8882 19.4629 26.8882ZM19.4629 27.4838C19.893 27.4838 20.1911 27.7487 20.2571 28.2451H18.6024C18.6686 27.8149 18.9665 27.4838 19.4629 27.4838ZM36.7049 28.5429V25.6968H36.01V27.3515C35.7783 27.0537 35.4474 26.8882 35.0171 26.8882C34.1236 26.8882 33.4286 27.5832 33.4286 28.5429C33.4286 29.5026 34.1236 30.1975 35.0171 30.1975C35.4805 30.1975 35.8114 30.0322 36.01 29.7343V30.1314H36.7049V28.5429ZM34.1568 28.5429C34.1568 27.9802 34.5207 27.517 35.1165 27.517C35.6791 27.517 36.0762 27.9472 36.0762 28.5429C36.0762 29.1055 35.6791 29.5687 35.1165 29.5687C34.5207 29.5356 34.1568 29.1055 34.1568 28.5429ZM10.9245 28.5429V26.9544H10.2296V27.3515C9.99786 27.0537 9.66696 26.8882 9.23671 26.8882C8.34319 26.8882 7.64822 27.5832 7.64822 28.5429C7.64822 29.5026 8.34319 30.1975 9.23671 30.1975C9.70013 30.1975 10.031 30.0322 10.2296 29.7343V30.1314H10.9245V28.5429ZM8.34319 28.5429C8.34319 27.9802 8.70726 27.517 9.30289 27.517C9.8655 27.517 10.2627 27.9472 10.2627 28.5429C10.2627 29.1055 9.8655 29.5687 9.30289 29.5687C8.70726 29.5356 8.34319 29.1055 8.34319 28.5429Z" fill="black"/>
<path id="Vector_2" d="M14.0686 2.82861H24.4932V21.5599H14.0686V2.82861Z" fill="#FF5F00"/>
<path id="Vector_3" d="M14.7304 12.1944C14.7304 8.38866 16.5174 5.01298 19.2642 2.82871C17.2456 1.24022 14.6974 0.280518 11.9175 0.280518C5.33151 0.280518 0.00341797 5.60861 0.00341797 12.1944C0.00341797 18.7801 5.33151 24.1084 11.9173 24.1084C14.6972 24.1084 17.2454 23.1487 19.2642 21.56C16.5174 19.4089 14.7304 16.0002 14.7304 12.1944Z" fill="#EB001B"/>
<path id="Vector_4" d="M38.5581 12.1944C38.5581 18.7801 33.23 24.1084 26.6442 24.1084C23.8643 24.1084 21.3161 23.1487 19.2974 21.56C22.0773 19.3759 23.8313 16.0002 23.8313 12.1944C23.8313 8.38866 22.0441 5.01298 19.2974 2.82871C21.316 1.24022 23.8643 0.280518 26.6442 0.280518C33.23 0.280518 38.5581 5.64177 38.5581 12.1944Z" fill="#F79E1B"/>
</g>
</svg>
