<svg width="25" height="24" viewBox="0 0 25 24" fill="none" xmlns="http://www.w3.org/2000/svg">
<g id="favorite">
<mask id="mask0_29_243" style="mask-type:alpha" maskUnits="userSpaceOnUse" x="0" y="0" width="25" height="24">
<rect id="Bounding box" x="0.199951" width="24" height="24" fill="#D9D9D9"/>
</mask>
<g mask="url(#mask0_29_243)">
<path id="favorite_2" d="M12.2 20.3249C11.9666 20.3249 11.7291 20.2832 11.4875 20.1999C11.2458 20.1166 11.0333 19.9832 10.85 19.7999L9.12495 18.2249C7.35828 16.6082 5.76245 15.0041 4.33745 13.4124C2.91245 11.8207 2.19995 10.0666 2.19995 8.1499C2.19995 6.58324 2.72495 5.2749 3.77495 4.2249C4.82495 3.1749 6.13328 2.6499 7.69995 2.6499C8.58328 2.6499 9.41662 2.8374 10.2 3.2124C10.9833 3.5874 11.65 4.0999 12.2 4.7499C12.75 4.0999 13.4166 3.5874 14.2 3.2124C14.9833 2.8374 15.8166 2.6499 16.7 2.6499C18.2666 2.6499 19.575 3.1749 20.625 4.2249C21.675 5.2749 22.2 6.58324 22.2 8.1499C22.2 10.0666 21.4916 11.8249 20.075 13.4249C18.6583 15.0249 17.05 16.6332 15.25 18.2499L13.55 19.7999C13.3666 19.9832 13.1541 20.1166 12.9125 20.1999C12.6708 20.2832 12.4333 20.3249 12.2 20.3249ZM11.25 6.7499C10.7666 6.06657 10.25 5.54574 9.69995 5.1874C9.14995 4.82907 8.48328 4.6499 7.69995 4.6499C6.69995 4.6499 5.86662 4.98324 5.19995 5.6499C4.53328 6.31657 4.19995 7.1499 4.19995 8.1499C4.19995 9.01657 4.50828 9.9374 5.12495 10.9124C5.74162 11.8874 6.47912 12.8332 7.33745 13.7499C8.19578 14.6666 9.07912 15.5249 9.98745 16.3249C10.8958 17.1249 11.6333 17.7832 12.2 18.2999C12.7666 17.7832 13.5041 17.1249 14.4125 16.3249C15.3208 15.5249 16.2041 14.6666 17.0625 13.7499C17.9208 12.8332 18.6583 11.8874 19.275 10.9124C19.8916 9.9374 20.2 9.01657 20.2 8.1499C20.2 7.1499 19.8666 6.31657 19.2 5.6499C18.5333 4.98324 17.7 4.6499 16.7 4.6499C15.9166 4.6499 15.25 4.82907 14.7 5.1874C14.15 5.54574 13.6333 6.06657 13.15 6.7499C13.0333 6.91657 12.8916 7.04157 12.725 7.1249C12.5583 7.20824 12.3833 7.2499 12.2 7.2499C12.0166 7.2499 11.8416 7.20824 11.675 7.1249C11.5083 7.04157 11.3666 6.91657 11.25 6.7499Z" fill="#FFCD00"/>
</g>
</g>
</svg>
