<svg width="25" height="25" viewBox="0 0 25 25" fill="none" xmlns="http://www.w3.org/2000/svg">
<g id="majesticons:search-line">
<path id="Vector" d="M20.5 20.5001L16.45 16.4501M16.45 16.4501C17.1 15.8001 17.6157 15.0284 17.9675 14.179C18.3193 13.3297 18.5003 12.4194 18.5003 11.5001C18.5003 10.5808 18.3193 9.67051 17.9675 8.82119C17.6157 7.97187 17.1 7.20016 16.45 6.55011C15.7999 5.90007 15.0282 5.38443 14.1789 5.03263C13.3296 4.68083 12.4193 4.49976 11.5 4.49976C10.5807 4.49976 9.67039 4.68083 8.82107 5.03263C7.97175 5.38443 7.20003 5.90007 6.54999 6.55011C5.23717 7.86293 4.49963 9.6435 4.49963 11.5001C4.49963 13.3567 5.23717 15.1373 6.54999 16.4501C7.86281 17.7629 9.64338 18.5005 11.5 18.5005C13.3566 18.5005 15.1372 17.7629 16.45 16.4501Z" stroke="#121212" stroke-width="2" stroke-linecap="round" stroke-linejoin="round"/>
</g>
</svg>
