<svg width="40" height="40" viewBox="0 0 40 40" fill="none" xmlns="http://www.w3.org/2000/svg">
<g id="mdi:instagram">
<path id="Vector" d="M12.9999 3.33337H26.9999C32.3333 3.33337 36.6666 7.66671 36.6666 13V27C36.6666 29.5638 35.6481 32.0226 33.8353 33.8354C32.0224 35.6483 29.5637 36.6667 26.9999 36.6667H12.9999C7.66659 36.6667 3.33325 32.3334 3.33325 27V13C3.33325 10.4363 4.3517 7.97753 6.16455 6.16468C7.9774 4.35182 10.4362 3.33337 12.9999 3.33337ZM12.6666 6.66671C11.0753 6.66671 9.54916 7.29885 8.42394 8.42407C7.29873 9.54928 6.66659 11.0754 6.66659 12.6667V27.3334C6.66659 30.65 9.34992 33.3334 12.6666 33.3334H27.3333C28.9245 33.3334 30.4507 32.7012 31.5759 31.576C32.7011 30.4508 33.3333 28.9247 33.3333 27.3334V12.6667C33.3333 9.35004 30.6499 6.66671 27.3333 6.66671H12.6666ZM28.7499 9.16671C29.3025 9.16671 29.8324 9.3862 30.2231 9.7769C30.6138 10.1676 30.8333 10.6975 30.8333 11.25C30.8333 11.8026 30.6138 12.3325 30.2231 12.7232C29.8324 13.1139 29.3025 13.3334 28.7499 13.3334C28.1974 13.3334 27.6675 13.1139 27.2768 12.7232C26.8861 12.3325 26.6666 11.8026 26.6666 11.25C26.6666 10.6975 26.8861 10.1676 27.2768 9.7769C27.6675 9.3862 28.1974 9.16671 28.7499 9.16671ZM19.9999 11.6667C22.2101 11.6667 24.3297 12.5447 25.8925 14.1075C27.4553 15.6703 28.3333 17.7899 28.3333 20C28.3333 22.2102 27.4553 24.3298 25.8925 25.8926C24.3297 27.4554 22.2101 28.3334 19.9999 28.3334C17.7898 28.3334 15.6702 27.4554 14.1074 25.8926C12.5446 24.3298 11.6666 22.2102 11.6666 20C11.6666 17.7899 12.5446 15.6703 14.1074 14.1075C15.6702 12.5447 17.7898 11.6667 19.9999 11.6667ZM19.9999 15C18.6738 15 17.4021 15.5268 16.4644 16.4645C15.5267 17.4022 14.9999 18.674 14.9999 20C14.9999 21.3261 15.5267 22.5979 16.4644 23.5356C17.4021 24.4733 18.6738 25 19.9999 25C21.326 25 22.5978 24.4733 23.5355 23.5356C24.4731 22.5979 24.9999 21.3261 24.9999 20C24.9999 18.674 24.4731 17.4022 23.5355 16.4645C22.5978 15.5268 21.326 15 19.9999 15Z" fill="#121212"/>
</g>
</svg>
