<svg width="31" height="31" viewBox="0 0 31 31" fill="none" xmlns="http://www.w3.org/2000/svg">
<g id="noto:credit-card">
<path id="Vector" d="M27.8672 24.175H3.33516C2.35078 24.175 1.54688 23.3711 1.54688 22.3868V8.17427C1.54688 7.18989 2.35078 6.38599 3.33516 6.38599H27.8672C28.8516 6.38599 29.6555 7.18989 29.6555 8.17427V22.3868C29.6555 23.3711 28.8516 24.175 27.8672 24.175Z" fill="#FFC107"/>
<path id="Vector_2" d="M1.54468 9.39307H29.658V13.1595H1.54468V9.39307Z" fill="#424242"/>
<path id="Vector_3" d="M27.3658 17.6571H3.85093C3.62124 17.6571 3.4314 17.4696 3.4314 17.2375V15.2665C3.4314 15.0368 3.6189 14.8469 3.85093 14.8469H27.3658C27.5955 14.8469 27.7853 15.0344 27.7853 15.2665V17.2375C27.783 17.4672 27.5955 17.6571 27.3658 17.6571Z" fill="white"/>
<path id="Vector_4" d="M6.22046 16.8017C6.35171 16.5486 6.38687 16.2533 6.50405 15.9931C6.62124 15.733 6.87671 15.4916 7.15796 15.5361C7.41812 15.5783 7.57983 15.8384 7.67593 16.0822C7.80952 16.422 7.88218 16.7853 7.89155 17.1509C7.8939 17.2259 7.88921 17.308 7.83999 17.3666C7.75327 17.465 7.57515 17.4158 7.50718 17.3033C7.43921 17.1908 7.45562 17.0478 7.48608 16.9189C7.6314 16.3213 8.10015 15.8127 8.68374 15.6205C8.74468 15.5994 8.80796 15.583 8.87124 15.5947C9.00718 15.6205 9.08218 15.7611 9.14312 15.883C9.28608 16.1619 9.45952 16.4267 9.65874 16.6681C9.73843 16.7666 9.82983 16.8627 9.95171 16.9002C10.3525 17.0173 10.5845 16.4267 10.9712 16.2697C11.4353 16.0822 11.8876 16.572 12.3798 16.6634C13.0994 16.797 13.4814 16.2369 14.1119 16.0939C14.1962 16.0752 14.2876 16.0634 14.372 16.0869C14.5267 16.1314 14.6228 16.2791 14.7142 16.4127C14.9275 16.7267 15.2322 17.0361 15.6119 17.0384C15.8533 17.0408 16.0759 16.9166 16.2962 16.8111C17.0767 16.4384 17.9978 16.2838 18.8134 16.5697" stroke="#424242" stroke-width="0.46875" stroke-miterlimit="10" stroke-linecap="round" stroke-linejoin="round"/>
</g>
</svg>
