<svg width="20" height="24" viewBox="0 0 20 24" fill="none" xmlns="http://www.w3.org/2000/svg">
<g id="shopping_bag">
<path id="shopping_bag_2" d="M2.4 24C1.74 24 1.175 23.765 0.705 23.295C0.235 22.825 0 22.26 0 21.6V7.2C0 6.54 0.235 5.975 0.705 5.505C1.175 5.035 1.74 4.8 2.4 4.8H4.8C4.8 3.48 5.27 2.35 6.21 1.41C7.15 0.47 8.28 0 9.6 0C10.92 0 12.05 0.47 12.99 1.41C13.93 2.35 14.4 3.48 14.4 4.8H16.8C17.46 4.8 18.025 5.035 18.495 5.505C18.965 5.975 19.2 6.54 19.2 7.2V21.6C19.2 22.26 18.965 22.825 18.495 23.295C18.025 23.765 17.46 24 16.8 24H2.4ZM2.4 21.6H16.8V7.2H14.4V9.6C14.4 9.94 14.285 10.225 14.055 10.455C13.825 10.685 13.54 10.8 13.2 10.8C12.86 10.8 12.575 10.685 12.345 10.455C12.115 10.225 12 9.94 12 9.6V7.2H7.2V9.6C7.2 9.94 7.085 10.225 6.855 10.455C6.625 10.685 6.34 10.8 6 10.8C5.66 10.8 5.375 10.685 5.145 10.455C4.915 10.225 4.8 9.94 4.8 9.6V7.2H2.4V21.6ZM7.2 4.8H12C12 4.14 11.765 3.575 11.295 3.105C10.825 2.635 10.26 2.4 9.6 2.4C8.94 2.4 8.375 2.635 7.905 3.105C7.435 3.575 7.2 4.14 7.2 4.8Z" fill="#FFCD00"/>
</g>
</svg>
