<svg width="25" height="24" viewBox="0 0 25 24" fill="none" xmlns="http://www.w3.org/2000/svg">
<g id="Group">
<path id="Vector" d="M12.2 22.5C9.41518 22.5 6.74446 21.3938 4.77533 19.4246C2.8062 17.4555 1.69995 14.7848 1.69995 12C1.69995 9.21523 2.8062 6.54451 4.77533 4.57538C6.74446 2.60625 9.41518 1.5 12.2 1.5C14.9847 1.5 17.6554 2.60625 19.6246 4.57538C21.5937 6.54451 22.7 9.21523 22.7 12C22.7 14.7848 21.5937 17.4555 19.6246 19.4246C17.6554 21.3938 14.9847 22.5 12.2 22.5ZM12.2 24C15.3825 24 18.4348 22.7357 20.6852 20.4853C22.9357 18.2348 24.2 15.1826 24.2 12C24.2 8.8174 22.9357 5.76516 20.6852 3.51472C18.4348 1.26428 15.3825 0 12.2 0C9.01735 0 5.96511 1.26428 3.71467 3.51472C1.46423 5.76516 0.199951 8.8174 0.199951 12C0.199951 15.1826 1.46423 18.2348 3.71467 20.4853C5.96511 22.7357 9.01735 24 12.2 24Z" fill="#FFCD00"/>
<path id="Vector_2" d="M6.62742 14.3505C6.79968 14.251 7.00439 14.2241 7.19652 14.2756C7.38865 14.3271 7.55246 14.4527 7.65192 14.625C8.11259 15.4235 8.7755 16.0866 9.57391 16.5474C10.3723 17.0082 11.2781 17.2505 12.1999 17.25C13.1218 17.2505 14.0275 17.0082 14.8259 16.5474C15.6243 16.0866 16.2873 15.4235 16.7479 14.625C16.7968 14.539 16.8622 14.4636 16.9404 14.4029C17.0186 14.3423 17.1079 14.2978 17.2034 14.2719C17.2989 14.246 17.3985 14.2392 17.4966 14.2519C17.5947 14.2647 17.6893 14.2967 17.7749 14.3462C17.8606 14.3956 17.9356 14.4615 17.9957 14.5401C18.0558 14.6187 18.0997 14.7084 18.125 14.804C18.1503 14.8996 18.1564 14.9993 18.143 15.0973C18.1296 15.1953 18.0969 15.2897 18.0469 15.375C17.4546 16.4015 16.6023 17.2539 15.5759 17.8464C14.5495 18.4389 13.3851 18.7505 12.1999 18.75C11.0148 18.7505 9.85037 18.4389 8.82394 17.8464C7.7975 17.2539 6.94524 16.4015 6.35292 15.375C6.25347 15.2027 6.22652 14.998 6.278 14.8059C6.32947 14.6138 6.45517 14.45 6.62742 14.3505ZM10.6999 9.75C10.6999 10.992 10.0279 12 9.19992 12C8.37192 12 7.69992 10.992 7.69992 9.75C7.69992 8.508 8.37192 7.5 9.19992 7.5C10.0279 7.5 10.6999 8.508 10.6999 9.75ZM16.6999 9.75C16.6999 10.992 16.0279 12 15.1999 12C14.3719 12 13.6999 10.992 13.6999 9.75C13.6999 8.508 14.3719 7.5 15.1999 7.5C16.0279 7.5 16.6999 8.508 16.6999 9.75Z" fill="#FFCD00"/>
</g>
</svg>
