<svg width="31" height="31" viewBox="0 0 31 31" fill="none" xmlns="http://www.w3.org/2000/svg">
<g id="octicon:person-24">
<path id="Vector" d="M15.4207 3.36047C16.8906 3.38313 18.3146 3.8764 19.4836 4.76786C20.6526 5.65933 21.505 6.90204 21.9158 8.31361C22.3266 9.72517 22.2741 11.2312 21.766 12.6108C21.2579 13.9903 20.321 15.1706 19.0927 15.9785C21.1899 16.7853 22.9976 18.2013 24.2831 20.0443C25.5686 21.8872 26.2732 24.0727 26.306 26.3195C26.3104 26.4442 26.2899 26.5686 26.2456 26.6853C26.2013 26.802 26.1341 26.9087 26.0481 26.9991C25.962 27.0895 25.8587 27.1618 25.7443 27.2117C25.6299 27.2617 25.5067 27.2883 25.3819 27.29C25.2571 27.2917 25.1332 27.2685 25.0174 27.2216C24.9017 27.1748 24.7965 27.1054 24.708 27.0173C24.6195 26.9293 24.5495 26.8245 24.502 26.709C24.4546 26.5936 24.4306 26.4698 24.4316 26.345C24.3955 23.9084 23.4121 21.5817 21.6898 19.8578C19.9675 18.134 17.6416 17.1485 15.2051 17.1102C12.7686 17.0718 10.4129 17.9837 8.6372 19.6526C6.86153 21.3214 5.80543 23.6161 5.69271 26.0503C5.68134 26.2988 5.57173 26.5326 5.38798 26.7003C5.20423 26.868 4.9614 26.9558 4.7129 26.9444C4.46441 26.933 4.23061 26.8234 4.06294 26.6397C3.89527 26.4559 3.80746 26.2131 3.81882 25.9646C3.92256 23.7202 4.69558 21.5582 6.03841 19.7569C7.38123 17.9555 9.2324 16.5972 11.3537 15.8568C10.1514 15.0107 9.25209 13.8015 8.78761 12.4067C8.32314 11.0119 8.31801 9.50489 8.77298 8.10694C9.22795 6.70898 10.1191 5.49369 11.3155 4.63942C12.512 3.78515 13.9507 3.3369 15.4207 3.36047ZM10.3132 10.156C10.2923 11.4819 10.7991 12.7618 11.7219 13.7141C12.6447 14.6664 13.908 15.2132 15.234 15.234C16.5599 15.2549 17.8398 14.7481 18.7921 13.8253C19.7444 12.9025 20.2911 11.6392 20.312 10.3132C20.3328 8.98732 19.8261 7.70742 18.9033 6.75511C17.9804 5.8028 16.7171 5.25609 15.3912 5.23524C14.0653 5.21439 12.7854 5.72111 11.8331 6.64393C10.8808 7.56675 10.334 8.83009 10.3132 10.156Z" fill="#F4F4F4"/>
</g>
</svg>
