<svg width="32" height="45" viewBox="0 0 32 45" fill="none" xmlns="http://www.w3.org/2000/svg">
<path id="Vector" d="M16 31.875C18.4856 31.8724 20.8687 30.8839 22.6263 29.1263C24.3839 27.3687 25.3724 24.9856 25.375 22.5V10C25.375 7.5136 24.3873 5.12903 22.6291 3.37087C20.871 1.61272 18.4864 0.625 16 0.625C13.5136 0.625 11.129 1.61272 9.37087 3.37087C7.61272 5.12903 6.625 7.5136 6.625 10V22.5C6.62758 24.9856 7.61614 27.3687 9.37373 29.1263C11.1313 30.8839 13.5144 31.8724 16 31.875ZM9.75 10C9.75 8.3424 10.4085 6.75268 11.5806 5.58058C12.7527 4.40848 14.3424 3.75 16 3.75C17.6576 3.75 19.2473 4.40848 20.4194 5.58058C21.5915 6.75268 22.25 8.3424 22.25 10V22.5C22.25 24.1576 21.5915 25.7473 20.4194 26.9194C19.2473 28.0915 17.6576 28.75 16 28.75C14.3424 28.75 12.7527 28.0915 11.5806 26.9194C10.4085 25.7473 9.75 24.1576 9.75 22.5V10ZM17.5625 38.0469V42.8125C17.5625 43.2269 17.3979 43.6243 17.1049 43.9174C16.8118 44.2104 16.4144 44.375 16 44.375C15.5856 44.375 15.1882 44.2104 14.8951 43.9174C14.6021 43.6243 14.4375 43.2269 14.4375 42.8125V38.0469C10.5852 37.6549 7.01517 35.8484 4.41766 32.9767C1.82016 30.105 0.379758 26.3722 0.375 22.5C0.375 22.0856 0.53962 21.6882 0.832646 21.3951C1.12567 21.1021 1.5231 20.9375 1.9375 20.9375C2.3519 20.9375 2.74933 21.1021 3.04235 21.3951C3.33538 21.6882 3.5 22.0856 3.5 22.5C3.5 25.8152 4.81696 28.9946 7.16116 31.3388C9.50537 33.683 12.6848 35 16 35C19.3152 35 22.4946 33.683 24.8388 31.3388C27.183 28.9946 28.5 25.8152 28.5 22.5C28.5 22.0856 28.6646 21.6882 28.9576 21.3951C29.2507 21.1021 29.6481 20.9375 30.0625 20.9375C30.4769 20.9375 30.8743 21.1021 31.1674 21.3951C31.4604 21.6882 31.625 22.0856 31.625 22.5C31.6202 26.3722 30.1798 30.105 27.5823 32.9767C24.9848 35.8484 21.4148 37.6549 17.5625 38.0469Z" fill="#121212"/>
</svg>
