<svg width="32" height="32" viewBox="0 0 32 32" fill="none" xmlns="http://www.w3.org/2000/svg">
<g id="visibility">
<mask id="mask0_8_491" style="mask-type:alpha" maskUnits="userSpaceOnUse" x="0" y="0" width="32" height="32">
<rect id="Bounding box" x="1.5332" y="0.938606" width="30" height="30" transform="rotate(1.80182 1.5332 0.938606)" fill="#D9D9D9"/>
</mask>
<g mask="url(#mask0_8_491)">
<path id="visibility_2" d="M15.897 21.4004C17.4587 21.4495 18.8034 20.9446 19.931 19.8858C21.0586 18.827 21.6469 17.5167 21.6961 15.955C21.7452 14.3933 21.2403 13.0486 20.1815 11.921C19.1227 10.7934 17.8124 10.205 16.2507 10.1559C14.689 10.1068 13.3443 10.6116 12.2167 11.6705C11.0891 12.7293 10.5008 14.0395 10.4516 15.6013C10.4025 17.163 10.9073 18.5077 11.9662 19.6353C13.025 20.7629 14.3353 21.3512 15.897 21.4004ZM15.9677 19.1515C15.0307 19.122 14.2445 18.769 13.6092 18.0924C12.9739 17.4159 12.671 16.6091 12.7005 15.672C12.73 14.735 13.083 13.9488 13.7596 13.3135C14.4361 12.6782 15.2429 12.3753 16.18 12.4048C17.117 12.4343 17.9032 12.7873 18.5385 13.4639C19.1737 14.1404 19.4767 14.9472 19.4472 15.8843C19.4177 16.8213 19.0647 17.6075 18.3881 18.2427C17.7116 18.878 16.9048 19.1809 15.9677 19.1515ZM15.7791 25.1485C12.9888 25.0607 10.4667 24.231 8.21297 22.6594C5.95919 21.0877 4.20461 19.0524 2.94923 16.5533C2.85101 16.3627 2.77898 16.1676 2.73315 15.9681C2.68731 15.7687 2.66767 15.5648 2.67422 15.3566C2.68077 15.1484 2.71319 14.9462 2.77147 14.75C2.82975 14.5538 2.91389 14.3637 3.0239 14.1795C4.43387 11.7643 6.31291 9.84329 8.66102 8.41642C11.0091 6.98954 13.5783 6.31999 16.3686 6.40777C19.1589 6.49555 21.6809 7.32526 23.9347 8.8969C26.1885 10.4685 27.9431 12.5039 29.1985 15.0029C29.2967 15.1936 29.3687 15.3887 29.4145 15.5881C29.4604 15.7876 29.48 15.9914 29.4735 16.1997C29.4669 16.4079 29.4345 16.6101 29.3762 16.8063C29.3179 17.0025 29.2338 17.1926 29.1238 17.3767C27.7138 19.7919 25.8348 21.713 23.4867 23.1399C21.1386 24.5667 18.5694 25.2363 15.7791 25.1485ZM15.8577 22.6497C18.2107 22.7238 20.3906 22.1722 22.3973 20.9952C24.4041 19.8181 25.9611 18.1944 27.0684 16.124C26.0934 13.9881 24.6415 12.2697 22.7127 10.9689C20.7839 9.668 18.643 8.98055 16.29 8.90653C13.937 8.83251 11.7571 9.38404 9.75038 10.5611C7.74363 11.7382 6.18659 13.3619 5.07928 15.4323C6.05427 17.5681 7.50617 19.2865 9.43497 20.5874C11.3638 21.8883 13.5047 22.5757 15.8577 22.6497Z" fill="#F4F4F4" fill-opacity="0.62"/>
</g>
</g>
</svg>
