<svg width="41" height="41" viewBox="0 0 41 41" fill="none" xmlns="http://www.w3.org/2000/svg">
<g id="Group">
<path id="Vector" fill-rule="evenodd" clip-rule="evenodd" d="M32.9735 7.89623C33.1176 7.73142 33.2279 7.53983 33.2979 7.33242C33.368 7.125 33.3966 6.90581 33.382 6.68736C33.3673 6.46891 33.3098 6.25548 33.2127 6.05925C33.1156 5.86303 32.9808 5.68785 32.816 5.54373C32.6512 5.3996 32.4596 5.28935 32.2522 5.21926C32.0448 5.14918 31.8256 5.12063 31.6071 5.13526C31.3887 5.14988 31.1752 5.20739 30.979 5.3045C30.7828 5.40161 30.6076 5.53642 30.4635 5.70123L21.9468 15.4346L14.7185 5.79789C14.5632 5.5909 14.3619 5.42289 14.1305 5.30718C13.8991 5.19147 13.6439 5.13123 13.3852 5.13123H6.71849C6.40897 5.13123 6.10556 5.21742 5.84227 5.38014C5.57897 5.54287 5.3662 5.77569 5.22777 6.05254C5.08935 6.32938 5.03076 6.6393 5.05855 6.94757C5.08635 7.25584 5.19944 7.55028 5.38515 7.79789L16.1135 22.1012L7.13015 32.3679C6.98603 32.5327 6.87577 32.7243 6.80569 32.9317C6.7356 33.1391 6.70706 33.3583 6.72168 33.5768C6.73631 33.7952 6.79382 34.0086 6.89093 34.2049C6.98804 34.4011 7.12284 34.5763 7.28765 34.7204C7.45246 34.8645 7.64404 34.9748 7.85146 35.0449C8.05888 35.1149 8.27807 35.1435 8.49652 35.1289C8.71497 35.1142 8.9284 35.0567 9.12463 34.9596C9.32085 34.8625 9.49603 34.7277 9.64015 34.5629L18.1568 24.8279L25.3852 34.4646C25.5404 34.6716 25.7417 34.8396 25.9731 34.9553C26.2046 35.071 26.4597 35.1312 26.7185 35.1312H33.3852C33.6947 35.1312 33.9981 35.045 34.2614 34.8823C34.5247 34.7196 34.7374 34.4868 34.8759 34.2099C35.0143 33.9331 35.0729 33.6232 35.0451 33.3149C35.0173 33.0066 34.9042 32.7122 34.7185 32.4646L23.9902 18.1612L32.9735 7.89623ZM27.5518 31.7979L10.0518 8.46456H12.5518L30.0518 31.7979H27.5518Z" fill="#F4F4F4"/>
</g>
</svg>
